<?xml version="1.0" encoding="utf-8"?>
<!-- Generator: Adobe Illustrator 25.3.0, SVG Export Plug-In . SVG Version: 6.00 Build 0)  -->
<svg version="1.1" xmlns="http://www.w3.org/2000/svg" xmlns:xlink="http://www.w3.org/1999/xlink" x="0px" y="0px"
	 viewBox="0 0 500 500" style="enable-background:new 0 0 500 500;" xml:space="preserve">
<style type="text/css">
	.st0{fill:url(#SVGID_1_);}
	.st1{fill:url(#SVGID_2_);}
	.st2{fill:url(#SVGID_3_);}
	.st3{fill:url(#SVGID_4_);}
	.st4{fill:url(#SVGID_5_);}
	.st5{fill:url(#SVGID_6_);}
	.st6{fill:url(#SVGID_7_);}
	.st7{fill:url(#SVGID_8_);}
	.st8{fill:url(#SVGID_9_);}
	.st9{fill:url(#SVGID_10_);}
	.st10{fill:url(#SVGID_11_);}
	.st11{fill:url(#SVGID_12_);}
	.st12{fill:url(#SVGID_13_);}
	.st13{fill:url(#SVGID_14_);}
	.st14{fill:url(#SVGID_15_);}
	.st15{fill:url(#SVGID_16_);}
	.st16{fill:url(#SVGID_17_);}
	.st17{fill:url(#SVGID_18_);}
	.st18{fill:url(#SVGID_19_);}
	.st19{fill:url(#SVGID_20_);}
	.st20{fill:url(#SVGID_21_);}
	.st21{fill:url(#SVGID_22_);}
	.st22{fill:url(#SVGID_23_);}
	.st23{fill:url(#SVGID_24_);}
	.st24{fill:none;stroke:url(#SVGID_25_);stroke-width:1.1;stroke-miterlimit:10;}
</style>
<g id="Layer_1">
</g>
<g id="Layer_2">
	<g>
		<g>
			<linearGradient id="SVGID_1_" gradientUnits="userSpaceOnUse" x1="195.3534" y1="277.0696" x2="323.0104" y2="180.5798">
				<stop  offset="0" style="stop-color:#137BCA"/>
				<stop  offset="1" style="stop-color:#001E48"/>
			</linearGradient>
			<path class="st0" d="M290.76,232.49c0.65,0.78,25.33,13.25,25.33,13.25l-12.48,5.79c0,0-1.12,0.65-4.1,0.21
				c-4.79-0.66-23.27-2.48-23.27-2.48s-28.57,31.42-58.26,11.61c-1.06-0.7-2.41-0.78-3.57-0.26l-16.46,7.37l-13.28-1.36l23.2-20.08
				l-3.68-8.89c0,0-12.33-1.29-20.48-11.7c0,0,45.19,13.79,76.87-14.02c5.79,3.84,16.46,9.4,29.24,9c-0.03,0.16-0.03,0.31-0.03,0.47
				C289.76,225.39,289.89,231.41,290.76,232.49z"/>
			<linearGradient id="SVGID_2_" gradientUnits="userSpaceOnUse" x1="183.5012" y1="261.389" x2="311.1581" y2="164.8991">
				<stop  offset="0" style="stop-color:#137BCA"/>
				<stop  offset="1" style="stop-color:#001E48"/>
			</linearGradient>
			<path class="st1" d="M316.37,187.86c-1.76,2-17.15,16.65-19.4,18.97c-0.85,0.87-2.11,2.62-3.33,4.65
				c-1.27,0.21-2.58,0.33-3.87,0.37c-10.15,0.37-18.97-4.11-23.85-7.27c1.88-3.36,3.89-7.9,5.25-13.58c0,0,0.58-3.5,0-4.22
				c-0.58-0.73-12.6-8.42-17.56-11.42c0,0,4.1-4.79,11.26-5.49c7.15-0.7,11.94,2.77,14.84,5.49c2.88,2.74,3.52,2.46,7.41,1.5
				c3.91-0.96,28.54-6.73,28.54-6.73s2.37,3.71,2.2,14.12C317.85,184.25,318.15,185.85,316.37,187.86z"/>
			<linearGradient id="SVGID_3_" gradientUnits="userSpaceOnUse" x1="180.8359" y1="257.8628" x2="308.4929" y2="161.3729">
				<stop  offset="0" style="stop-color:#137BCA"/>
				<stop  offset="1" style="stop-color:#001E48"/>
			</linearGradient>
			<path class="st2" d="M200.74,247.41l-13.19,11.25c-0.87,0.74-2.13,0.79-3.05,0.11l-6.42-4.72L200.74,247.41z"/>
			<linearGradient id="SVGID_4_" gradientUnits="userSpaceOnUse" x1="213.4166" y1="300.9674" x2="341.0736" y2="204.4775">
				<stop  offset="0" style="stop-color:#137BCA"/>
				<stop  offset="1" style="stop-color:#001E48"/>
			</linearGradient>
			<path class="st3" d="M293.79,226.23l28.13,6.72l-9.39,5.29c-0.4,0.23-0.89,0.24-1.31,0.04l-16.46-7.87
				c-0.59-0.28-0.96-0.87-0.96-1.52V226.23z"/>
			<linearGradient id="SVGID_5_" gradientUnits="userSpaceOnUse" x1="172.0259" y1="255.7658" x2="305.0325" y2="155.2324">
				<stop  offset="0" style="stop-color:#137BCA"/>
				<stop  offset="1" style="stop-color:#001E48"/>
			</linearGradient>
			<path class="st4" d="M294.15,159.57l-3.66,12.22c-0.09,0.31-0.35,0.55-0.67,0.61l-3.64,0.69c-0.53,0.1-1.02-0.29-1.04-0.83
				C285.05,169.24,285.57,160.43,294.15,159.57z"/>
			<linearGradient id="SVGID_6_" gradientUnits="userSpaceOnUse" x1="193.0893" y1="274.0742" x2="320.7463" y2="177.5843">
				<stop  offset="0" style="stop-color:#137BCA"/>
				<stop  offset="1" style="stop-color:#001E48"/>
			</linearGradient>
			<path class="st5" d="M289.9,218.49c-18.09,0.65-31.76-11.32-32.4-11.88c-0.86-0.77-0.94-2.09-0.18-2.95
				c0.76-0.86,2.08-0.94,2.94-0.18c0.16,0.14,16.09,14.04,35.2,10.15c1.13-0.24,2.23,0.5,2.46,1.63c0.23,1.13-0.5,2.24-1.63,2.47
				C294.11,218.17,291.97,218.41,289.9,218.49z"/>
		</g>
		<g>
			<linearGradient id="SVGID_7_" gradientUnits="userSpaceOnUse" x1="123.2153" y1="319.6451" x2="369.7769" y2="318.3642">
				<stop  offset="0" style="stop-color:#137BCA"/>
				<stop  offset="1" style="stop-color:#001E48"/>
			</linearGradient>
			<path class="st6" d="M124.29,299.46H140c12.66,0,21.4,8.69,21.4,20.02v0.11c0,11.34-8.75,20.14-21.4,20.14h-15.71V299.46z
				 M140,331.74c7.25,0,12.14-4.89,12.14-12.02v-0.12c0-7.14-4.89-12.14-12.14-12.14h-6.85v24.28H140z"/>
			<linearGradient id="SVGID_8_" gradientUnits="userSpaceOnUse" x1="123.2168" y1="319.9406" x2="369.7784" y2="318.6597">
				<stop  offset="0" style="stop-color:#137BCA"/>
				<stop  offset="1" style="stop-color:#001E48"/>
			</linearGradient>
			<path class="st7" d="M167.5,319.71v-0.12c0-11.45,9.03-20.83,21.46-20.83c12.43,0,21.35,9.26,21.35,20.71v0.11
				c0,11.45-9.03,20.83-21.46,20.83C176.42,340.43,167.5,331.16,167.5,319.71z M201.04,319.71v-0.12c0-6.91-5.06-12.66-12.2-12.66
				c-7.14,0-12.08,5.64-12.08,12.54v0.11c0,6.91,5.06,12.66,12.2,12.66S201.04,326.62,201.04,319.71z"/>
			<linearGradient id="SVGID_9_" gradientUnits="userSpaceOnUse" x1="123.2181" y1="320.1916" x2="369.7797" y2="318.9108">
				<stop  offset="0" style="stop-color:#137BCA"/>
				<stop  offset="1" style="stop-color:#001E48"/>
			</linearGradient>
			<path class="st8" d="M216.4,319.71v-0.12c0-11.45,8.63-20.83,21-20.83c7.6,0,12.14,2.53,15.88,6.21l-5.64,6.5
				c-3.11-2.82-6.27-4.55-10.3-4.55c-6.79,0-11.68,5.64-11.68,12.54v0.11c0,6.91,4.78,12.66,11.68,12.66c4.6,0,7.42-1.84,10.59-4.72
				l5.64,5.7c-4.14,4.43-8.75,7.19-16.51,7.19C225.2,340.43,216.4,331.28,216.4,319.71z"/>
			<linearGradient id="SVGID_10_" gradientUnits="userSpaceOnUse" x1="123.2192" y1="320.395" x2="369.7808" y2="319.1142">
				<stop  offset="0" style="stop-color:#137BCA"/>
				<stop  offset="1" style="stop-color:#001E48"/>
			</linearGradient>
			<path class="st9" d="M259.43,333.01l22.15-25.78h-21.46v-7.77h32.86v6.73l-22.15,25.78h22.15v7.77h-33.55V333.01z"/>
			<linearGradient id="SVGID_11_" gradientUnits="userSpaceOnUse" x1="123.2203" y1="320.6036" x2="369.7818" y2="319.3228">
				<stop  offset="0" style="stop-color:#137BCA"/>
				<stop  offset="1" style="stop-color:#001E48"/>
			</linearGradient>
			<path class="st10" d="M301.37,299.46h30.38v7.88h-21.58v8.17h18.99v7.88h-18.99v8.46h21.86v7.88h-30.67V299.46z"/>
			<linearGradient id="SVGID_12_" gradientUnits="userSpaceOnUse" x1="123.2214" y1="320.8171" x2="369.783" y2="319.5363">
				<stop  offset="0" style="stop-color:#137BCA"/>
				<stop  offset="1" style="stop-color:#001E48"/>
			</linearGradient>
			<path class="st11" d="M339.92,299.46h8.17l18.87,24.8v-24.8h8.75v40.28h-7.54l-19.51-25.61v25.61h-8.75V299.46z"/>
		</g>
	</g>
</g>
</svg>
